<svg width="32" height="32" viewBox="0 0 32 32" fill="none" xmlns="http://www.w3.org/2000/svg">
<path d="M11.3334 25.3333C10.9379 25.3333 10.5512 25.4506 10.2223 25.6704C9.89338 25.8902 9.63703 26.2025 9.48566 26.568C9.33428 26.9334 9.29467 27.3356 9.37184 27.7235C9.44901 28.1115 9.6395 28.4678 9.9192 28.7475C10.1989 29.0273 10.5553 29.2177 10.9432 29.2949C11.3312 29.3721 11.7333 29.3325 12.0988 29.1811C12.4642 29.0297 12.7766 28.7734 12.9964 28.4445C13.2161 28.1156 13.3334 27.7289 13.3334 27.3333C13.3334 26.8029 13.1227 26.2942 12.7476 25.9191C12.3726 25.544 11.8638 25.3333 11.3334 25.3333ZM25.3334 21.3333H9.33342C8.97979 21.3333 8.64065 21.1929 8.39061 20.9428C8.14056 20.6928 8.00008 20.3536 8.00008 20C8.00008 19.6464 8.14056 19.3072 8.39061 19.0572C8.64065 18.8071 8.97979 18.6667 9.33342 18.6667H20.6547C21.5234 18.664 22.3678 18.3798 23.0613 17.8567C23.7548 17.3336 24.2601 16.5998 24.5014 15.7653L26.6147 8.36533C26.6713 8.16702 26.681 7.9583 26.6432 7.75558C26.6054 7.55287 26.5211 7.36169 26.3969 7.19706C26.2727 7.03244 26.1121 6.89886 25.9275 6.80683C25.743 6.71479 25.5396 6.66682 25.3334 6.66667H8.98675C8.71049 5.88935 8.20119 5.21618 7.5283 4.73895C6.85541 4.26172 6.05168 4.00367 5.22675 4H4.00008C3.64646 4 3.30732 4.14048 3.05727 4.39052C2.80722 4.64057 2.66675 4.97971 2.66675 5.33333C2.66675 5.68696 2.80722 6.02609 3.05727 6.27614C3.30732 6.52619 3.64646 6.66667 4.00008 6.66667H5.22808C5.51762 6.66759 5.79907 6.76227 6.03029 6.93653C6.26152 7.11079 6.43008 7.35526 6.51075 7.63333L6.71741 8.36V8.36667L8.90541 16.0227C7.88697 16.1315 6.9491 16.627 6.28508 17.4068C5.62107 18.1867 5.28151 19.1915 5.33638 20.2143C5.39125 21.2371 5.83638 22.1998 6.58003 22.9042C7.32367 23.6085 8.30917 24.0007 9.33342 24H25.3334C25.687 24 26.0262 23.8595 26.2762 23.6095C26.5263 23.3594 26.6667 23.0203 26.6667 22.6667C26.6667 22.313 26.5263 21.9739 26.2762 21.7239C26.0262 21.4738 25.687 21.3333 25.3334 21.3333ZM23.5654 9.33333L21.9387 15.032C21.8583 15.3105 21.6896 15.5555 21.4581 15.73C21.2266 15.9045 20.9447 15.9993 20.6547 16H11.6721L11.3321 14.8107L9.76808 9.33333H23.5654ZM22.0001 25.3333C21.6045 25.3333 21.2178 25.4506 20.8889 25.6704C20.56 25.8902 20.3037 26.2025 20.1523 26.568C20.0009 26.9334 19.9613 27.3356 20.0385 27.7235C20.1157 28.1115 20.3062 28.4678 20.5859 28.7475C20.8656 29.0273 21.2219 29.2177 21.6099 29.2949C21.9979 29.3721 22.4 29.3325 22.7654 29.1811C23.1309 29.0297 23.4433 28.7734 23.663 28.4445C23.8828 28.1156 24.0001 27.7289 24.0001 27.3333C24.0001 26.8029 23.7894 26.2942 23.4143 25.9191C23.0392 25.544 22.5305 25.3333 22.0001 25.3333Z" fill="#C4C4C4"/>
<circle cx="25" cy="6" r="4" fill="#ED4C5C"/>
</svg>
