<?xml version="1.0" standalone="no"?>
<!DOCTYPE svg PUBLIC "-//W3C//DTD SVG 20010904//EN"
 "http://www.w3.org/TR/2001/REC-SVG-20010904/DTD/svg10.dtd">
<svg version="1.0" xmlns="http://www.w3.org/2000/svg"
 width="80.000000pt" height="80.000000pt" viewBox="0 0 80.000000 80.000000"
 preserveAspectRatio="xMidYMid meet">
<metadata>
Created by potrace 1.16, written by Peter Selinger 2001-2019
</metadata>
<g transform="translate(0.000000,80.000000) scale(0.006250,-0.007820)"
fill="#000000" stroke="none">
<path d="M6110 7556 c-218 -28 -425 -82 -630 -164 -106 -42 -267 -121 -297
-145 -10 -7 -13 -95 -13 -378 l0 -369 73 59 c192 156 443 282 689 346 152 39
243 49 458 50 248 0 376 -18 572 -80 153 -49 383 -162 483 -237 166 -125 239
-190 343 -308 206 -234 355 -536 424 -860 19 -92 22 -135 22 -345 1 -261 -8
-329 -63 -520 -123 -429 -414 -817 -791 -1053 -96 -60 -326 -164 -435 -197
-200 -60 -322 -78 -540 -79 -312 -1 -548 52 -814 181 -242 119 -458 291 -639
508 -141 170 -273 432 -337 670 -59 216 -57 185 -64 1179 l-6 918 -72 -89
c-263 -329 -426 -698 -504 -1138 -31 -175 -34 -577 -6 -750 118 -714 492
-1298 1083 -1691 567 -376 1286 -497 1950 -329 608 155 1142 542 1475 1070
176 281 302 618 354 950 23 143 30 444 16 590 -26 248 -78 461 -170 693 -314
788 -1040 1365 -1891 1503 -162 27 -516 34 -670 15z"/>
<path d="M6170 6314 c-287 -52 -585 -238 -752 -471 -164 -228 -238 -454 -238
-729 0 -333 121 -627 354 -859 282 -280 669 -404 1066 -340 296 48 589 225
760 459 33 44 63 86 67 91 26 34 96 184 122 260 42 127 61 247 61 396 0 254
-72 486 -215 694 -60 87 -209 236 -295 296 -139 96 -323 173 -487 205 -94 18
-340 17 -443 -2z m494 -463 c128 -34 190 -73 262 -166 56 -72 131 -235 118
-256 -3 -5 -90 -9 -194 -9 l-188 0 -12 34 c-14 44 -85 109 -136 127 -50 17
-215 17 -277 -1 -63 -17 -107 -58 -107 -99 0 -66 62 -95 370 -171 363 -90 474
-148 542 -288 31 -63 33 -72 33 -177 0 -108 -1 -113 -37 -186 -92 -186 -275
-287 -555 -305 -248 -15 -494 55 -605 172 -40 44 -95 139 -128 226 -50 130
-62 121 160 116 105 -3 192 -7 193 -9 2 -2 12 -26 22 -53 25 -69 89 -131 156
-150 66 -20 210 -21 273 -2 105 32 151 95 125 173 -15 47 -47 60 -284 118
-203 50 -340 93 -419 132 -66 34 -142 112 -174 181 -24 51 -27 68 -27 172 0
104 3 121 27 172 65 140 189 225 383 264 104 20 375 12 479 -15z"/>
</g>
</svg>
