<svg height="512" viewBox="0 0 36 59" width="512" xmlns="http://www.w3.org/2000/svg"><g id="Page-1" fill="none" fill-rule="evenodd"><g id="003---Graphics-Card" fill-rule="nonzero"><path id="Shape" d="m19 5h-.035-6.965v27h14v-27z" fill="#35495e"/><path id="Shape" d="m6 5v32l7-1v-31z" fill="#2c3e50"/><path id="Shape" d="m32 5v32l-7-3v-29z" fill="#2c3e50"/><path id="Shape" d="m12 1h8c.5522847 0 1 .44771525 1 1v3h-10v-3c0-.55228475.4477153-1 1-1z" fill="#bdc3c7"/><path id="Shape" d="m14 1h4c.5522847 0 1 .44771525 1 1v3h-6v-3c0-.55228475.4477153-1 1-1z" fill="#ecf0f1"/><path id="Shape" d="m32 37v12l-6.72 5.76c-.1820673.1533213-.4119816.2382128-.65.24h-11.26c-.2380184-.0017872-.4679327-.0866787-.65-.24l-6.72-5.76v-12l7-6h12z" fill="#56595e"/><circle id="Oval" cx="10" cy="28" fill="#2c2f38" r="1"/><path id="Shape" d="m25 31h-12s5.57-25.06 5.97-26h.03c0 1 6 26 6 26z" fill="#2c3e50"/><path id="Shape" d="m32.0000146 49-.0000146 4.53c.0016116.2976809-.1305454.58035-.36.77l-5.36 4.47c-.1799121.1490812-.4063478.2304565-.64.23h-13.28c-.2336522.0004565-.4600879-.0809188-.64-.23l-5.36-4.47c-.22945463-.18965-.36161159-.4723191-.36-.77l-.00001457-4.53 6.72001457 5.76c.1820673.1533213.4119816.2382128.65.24h11.26c.2380184-.0017872.4679327-.0866787.65-.24z" fill="#2c2f38"/><circle id="Oval" cx="19" cy="43" fill="#7f8284" r="8"/><g fill="#2c2f38"><path id="Shape" d="m19 41c-.1962408-.0002669-.3879936-.0587323-.551-.168-.9629718-.6642709-1.6020957-1.7029832-1.761-2.862-.0587776-1.4080937.5348372-2.764664 1.609-3.677.3923789-.3789722 1.0160848-.3735524 1.4018186.0121814s.3911536 1.0094397.0121814 1.4018186c-.6281343.5004485-1.0062132 1.2503963-1.035 2.053.1016613.5688037.420897 1.0756352.89 1.413.3636368.2471967.5231384.7029208.3930208 1.1229295-.1301177.4200087-.5193219.7057452-.9590208.7040705z"/><path id="Shape" d="m19 52c-.4043959-.0000863-.7689341-.2437275-.923678-.6173454-.1547439-.373618-.0692299-.8036603.216678-1.0896546.6281343-.5004485 1.0062132-1.2503963 1.035-2.053-.1016613-.5688037-.420897-1.0756352-.89-1.413-.4563902-.3091061-.5765865-.9292376-.2687314-1.3864726.307855-.457235.927655-.5791291 1.3857314-.2725274.9629718.6642709 1.6020957 1.7029832 1.761 2.862.0587776 1.4080937-.5348372 2.764664-1.609 3.677-.1874927.1875494-.4418052.2929434-.707.293z"/><path id="Shape" d="m16.319 41.925c-.9102017.0177245-1.7984826-.2801358-2.514-.843-1.0370999-.9547035-1.5764355-2.3340304-1.462-3.739 0-.5522847.4477153-1 1-1s1 .4477153 1 1c-.0913139.7979988.1718538 1.5959087.72 2.183.4733279.3316479 1.0578231.4644877 1.628.37.3506562-.068595.7112708.0550935.9460039.3244731.2347331.2693797.3079231.6435254.192.9815-.115923.3379747-.4033477.5884319-.7540039.6570269-.2493135.0460961-.5024704.0681971-.756.066z"/><path id="Shape" d="m24.657 49.657c-.5522847 0-1-.4477153-1-1 .0913139-.7979988-.1718538-1.5959087-.72-2.183-.4735918-.3310522-1.0578426-.4638364-1.628-.37-.5417929.0969257-1.0608966-.2595404-1.165-.8-.1025048-.537102.245394-1.0569456.781-1.167 1.1507493-.211697 2.3374783.0702872 3.27.777 1.0370999.9547035 1.5764355 2.3340304 1.462 3.739.0010636.2659089-.1038235.5212916-.2914752.709694-.1876518.1884024-.4426138.2943081-.7085248.294306z"/><path id="Shape" d="m13.622 45.334c-1.2837511-.0708991-2.4843433-.657671-3.329-1.627-.37897221-.3923789-.37355237-1.0160848.0121814-1.4018186.3857338-.3857338 1.0094397-.3911536 1.4018186-.0121814.5002749.6283478 1.2503279 1.0064797 2.053 1.035.5688037-.1016613 1.0756352-.420897 1.413-.89.3091061-.4563902.9292376-.5765865 1.3864726-.2687314.457235.307855.5791291.927655.2725274 1.3857314-.6642709.9629718-1.7029832 1.6020957-2.862 1.761-.1156133.0119796-.2317677.0179875-.348.018z"/><path id="Shape" d="m27 44c-.2651948-.0000566-.5195073-.1054506-.707-.293-.5007082-.6278147-1.2504988-1.0058143-2.053-1.035-.5688037.1016613-1.0756352.420897-1.413.89-.3091061.4563902-.9292376.5765865-1.3864726.2687314-.457235-.307855-.5791291-.927655-.2725274-1.3857314.6642709-.9629718 1.7029832-1.6020957 2.862-1.761 1.4081222-.0589294 2.7647562.5347133 3.677 1.609.2859079.2859943.3714219.7160366.216678 1.0896546-.1547439.3736179-.5192821.6172591-.923678.6173454z"/><path id="Shape" d="m13.343 49.657c-.5522847 0-1-.4477153-1-1s.4477153-1 1-1c.7979988.0913139 1.5959087-.1718538 2.183-.72.330657-.4737667.4634045-1.0578557.37-1.628-.068595-.3506562.0550935-.7112708.3244731-.9460039.2693797-.2347331.6435254-.3079231.9815-.192.3379747.115923.5884319.4033477.6570269.7540039.2111916 1.1507363-.0707445 2.3372626-.777 3.27-.9547035 1.0370999-2.3340304 1.5764355-3.739 1.462z"/><path id="Shape" d="m21.117 41.875c-.4746004.0005325-.883372-.3345262-.976-.8-.2111916-1.1507363.0707445-2.3372626.777-3.27.9547035-1.0370999 2.3340304-1.5764355 3.739-1.462.5522847 0 1 .4477153 1 1s-.4477153 1-1 1c-.7979988-.0913139-1.5959087.1718538-2.183.72-.330657.4737667-.4634045 1.0578557-.37 1.628.1003867.5425337-.2576061 1.0638607-.8 1.165-.0615608.0124414-.1241949.0188053-.187.019z"/><circle id="Oval" cx="10" cy="9" r="1"/><circle id="Oval" cx="28" cy="9" r="1"/><circle id="Oval" cx="28" cy="28" r="1"/></g><path id="Shape" d="m1 12v21c1.1045695 0 2 .8954305 2 2s-.8954305 2-2 2v5c0 .5522847.44771525 1 1 1h4v-32h-4c-.55228475 0-1 .4477153-1 1z" fill="#4fba6f"/><path id="Shape" d="m34 6h-33c-.55228475 0-1-.44771525-1-1s.44771525-1 1-1h33v-3c0-.55228475.4477153-1 1-1s1 .44771525 1 1v3c0 1.1045695-.8954305 2-2 2z" fill="#7f8284"/><path id="Shape" d="m1 15h2c.55228475 0 1 .4477153 1 1s-.44771525 1-1 1h-2z" fill="#f3d55b"/><path id="Shape" d="m1 19h2c.55228475 0 1 .4477153 1 1s-.44771525 1-1 1h-2z" fill="#f3d55b"/><path id="Shape" d="m1 23h2c.55228475 0 1 .4477153 1 1s-.44771525 1-1 1h-2z" fill="#f3d55b"/><path id="Shape" d="m1 27h2c.55228475 0 1 .4477153 1 1s-.44771525 1-1 1h-2z" fill="#f3d55b"/><path id="Shape" d="m1 39h2c.55228475 0 1 .4477153 1 1s-.44771525 1-1 1h-2z" fill="#f3d55b"/><circle id="Oval" cx="19" cy="43" fill="#95a5a5" r="4"/><path id="Shape" d="m19 52c-4.9705627 0-9-4.0294373-9-9s4.0294373-9 9-9 9 4.0294373 9 9c-.006061 4.9680501-4.0319499 8.993939-9 9zm0-16c-3.8659932 0-7 3.1340068-7 7s3.1340068 7 7 7 7-3.1340068 7-7c-.0044086-3.8641657-3.1358343-6.9955914-7-7z" fill="#2c2f38"/></g></g></svg>