<svg width="24" height="24" viewBox="0 0 24 24" fill="none" xmlns="http://www.w3.org/2000/svg">
<path d="M8.04004 16.38H15.8867C16.0193 16.38 16.1465 16.3273 16.2403 16.2336C16.334 16.1398 16.3867 16.0126 16.3867 15.88V7.55334H15.3867V15.38H8.05337L8.04004 16.38Z" fill="#C4C4C4"/>
<path d="M21.4667 15.7H20V12.1H21.4667C21.6081 12.1 21.7438 12.0438 21.8438 11.9438C21.9438 11.8438 22 11.7081 22 11.5667C22 11.4252 21.9438 11.2896 21.8438 11.1895C21.7438 11.0895 21.6081 11.0333 21.4667 11.0333H20V9C19.5492 8.99826 19.1006 8.93546 18.6667 8.81333V18.6C18.6667 18.6177 18.6596 18.6346 18.6471 18.6471C18.6346 18.6596 18.6177 18.6667 18.6 18.6667H5.4C5.38232 18.6667 5.36536 18.6596 5.35286 18.6471C5.34036 18.6346 5.33333 18.6177 5.33333 18.6V5.4C5.33333 5.38232 5.34036 5.36536 5.35286 5.35286C5.36536 5.34036 5.38232 5.33333 5.4 5.33333H15.1867C15.0645 4.89935 15.0017 4.45083 15 4H12.9V2.53333C12.9 2.39188 12.8438 2.25623 12.7438 2.15621C12.6438 2.05619 12.5081 2 12.3667 2C12.2252 2 12.0896 2.05619 11.9895 2.15621C11.8895 2.25623 11.8333 2.39188 11.8333 2.53333V4H8.23333V2.53333C8.23333 2.39188 8.17714 2.25623 8.07712 2.15621C7.9771 2.05619 7.84145 2 7.7 2C7.55855 2 7.4229 2.05619 7.32288 2.15621C7.22286 2.25623 7.16667 2.39188 7.16667 2.53333V4H5.4C5.0287 4 4.6726 4.1475 4.41005 4.41005C4.1475 4.6726 4 5.0287 4 5.4V6.36667H2.53333C2.39188 6.36667 2.25623 6.42286 2.15621 6.52288C2.05619 6.6229 2 6.75855 2 6.9C2 7.04145 2.05619 7.1771 2.15621 7.27712C2.25623 7.37714 2.39188 7.43333 2.53333 7.43333H4V11.0333H2.53333C2.39188 11.0333 2.25623 11.0895 2.15621 11.1895C2.05619 11.2896 2 11.4252 2 11.5667C2 11.7081 2.05619 11.8438 2.15621 11.9438C2.25623 12.0438 2.39188 12.1 2.53333 12.1H4V15.7H2.53333C2.39188 15.7 2.25623 15.7562 2.15621 15.8562C2.05619 15.9562 2 16.0919 2 16.2333C2 16.3748 2.05619 16.5104 2.15621 16.6105C2.25623 16.7105 2.39188 16.7667 2.53333 16.7667H4V18.6C4 18.9713 4.1475 19.3274 4.41005 19.59C4.6726 19.8525 5.0287 20 5.4 20H7.16667V21.4667C7.16667 21.6081 7.22286 21.7438 7.32288 21.8438C7.4229 21.9438 7.55855 22 7.7 22C7.84145 22 7.9771 21.9438 8.07712 21.8438C8.17714 21.7438 8.23333 21.6081 8.23333 21.4667V20H11.8333V21.4667C11.8333 21.6081 11.8895 21.7438 11.9895 21.8438C12.0896 21.9438 12.2252 22 12.3667 22C12.5081 22 12.6438 21.9438 12.7438 21.8438C12.8438 21.7438 12.9 21.6081 12.9 21.4667V20H16.5V21.4667C16.5 21.6081 16.5562 21.7438 16.6562 21.8438C16.7562 21.9438 16.8919 22 17.0333 22C17.1748 22 17.3104 21.9438 17.4105 21.8438C17.5105 21.7438 17.5667 21.6081 17.5667 21.4667V20H18.6C18.9713 20 19.3274 19.8525 19.59 19.59C19.8525 19.3274 20 18.9713 20 18.6V16.7667H21.4667C21.6081 16.7667 21.7438 16.7105 21.8438 16.6105C21.9438 16.5104 22 16.3748 22 16.2333C22 16.0919 21.9438 15.9562 21.8438 15.8562C21.7438 15.7562 21.6081 15.7 21.4667 15.7Z" fill="#C4C4C4"/>
<path d="M20.0001 7.33332C21.841 7.33332 23.3334 5.84094 23.3334 3.99999C23.3334 2.15904 21.841 0.666656 20.0001 0.666656C18.1591 0.666656 16.6667 2.15904 16.6667 3.99999C16.6667 5.84094 18.1591 7.33332 20.0001 7.33332Z" fill="#C4C4C4"/>
</svg>
